# xmcd
#
# Track frame offsets: 
#        150
#        15765
#        33600
#        42411
#
# Disc length: 848 seconds
#
# Revision: 1
# Processed by: cddbd v1.5.2PL0 Copyright (c) Steve Scherf et al.
# Submitted via: ExactAudioCopy v1.3
#
DISCID=25034e04
DTITLE=WANIMA - JUICE OP!!
DYEAR=0
DGENRE=
TTITLE0=ともに
TTITLE1=オドルヨル
TTITLE2=切手のないおくりもの
TTITLE3=For you
EXTD=
EXTT0=
EXTT1=
EXTT2=
EXTT3=
PLAYORDER=
